o Default
v 2.5374293327331543 1.7763568394002505e-15 -9.169286727905273
v 4.2125701904296875 -1.7763568394002505e-15 -11.205713272094727
v 2.7446889877319336 1.7763568394002505e-15 -9.029488563537598
v 4.005310535430908 -1.7763568394002505e-15 -11.345510482788086
v 2.7446889877319336 9.875 -9.029488563537598
v 4.005310535430908 9.875 -11.345510482788086
v 2.5374293327331543 9.875 -9.169286727905273
v 4.2125701904296875 9.875 -11.205713272094727
v 2.5374293327331543 1.7763568394002505e-15 -9.169286727905273
v 2.7446889877319336 9.875 -9.029488563537598
v 2.5374293327331543 9.875 -9.169286727905273
v 2.7446889877319336 1.7763568394002505e-15 -9.029488563537598
v 4.005310535430908 -1.7763568394002505e-15 -11.345510482788086
v 2.5374293327331543 9.875 -9.169286727905273
v 4.005310535430908 9.875 -11.345510482788086
v 2.5374293327331543 1.7763568394002505e-15 -9.169286727905273
v 4.2125701904296875 -1.7763568394002505e-15 -11.205713272094727
v 4.005310535430908 9.875 -11.345510482788086
v 4.2125701904296875 9.875 -11.205713272094727
v 4.005310535430908 -1.7763568394002505e-15 -11.345510482788086
v 2.7446889877319336 1.7763568394002505e-15 -9.029488563537598
v 4.2125701904296875 9.875 -11.205713272094727
v 2.7446889877319336 9.875 -9.029488563537598
v 4.2125701904296875 0 -11.205713272094727
vt 0 0
vt 1 1
vt 0 1
vt 0 0
vt 1 0
vt 1 1
vt 0 0
vt 1 1
vt 0 1
vt 0 0
vt 1 0
vt 1 1
vt 0 0
vt 1 1
vt 0 1
vt 0 0
vt 1 0
vt 1 1
vt 0 0
vt 1 1
vt 0 1
vt 0 0
vt 1 0
vt 1 1
vt 0 0
vt 1 1
vt 0 1
vt 0 0
vt 1 0
vt 1 1
vt 0 0
vt 1 1
vt 0 1
vt 0 0
vt 1 0
vt 1 1
vn -7.568187980603494e-16 -1 1.1220319214638246e-15
vn -7.568187980603494e-16 -1 1.1220319214638246e-15
vn -7.568187980603494e-16 -1 1.1220319214638246e-15
vn -7.568154775461671e-16 -1 1.122034652880281e-15
vn -7.568154775461671e-16 -1 1.122034652880281e-15
vn -7.568154775461671e-16 -1 1.122034652880281e-15
vn 0 1 0
vn 0 1 0
vn 0 1 0
vn 0 1 0
vn 0 1 0
vn 0 1 0
vn -0.5591922488096466 0 0.8290380141291535
vn -0.5591922488096466 0 0.8290380141291535
vn -0.5591922488096466 0 0.8290380141291535
vn -0.5591922488096466 0 0.8290380141291535
vn -0.5591922488096466 0 0.8290380141291535
vn -0.5591922488096466 0 0.8290380141291535
vn -0.8290376175058849 0 -0.5591928368283753
vn -0.8290376175058849 0 -0.5591928368283753
vn -0.8290376175058849 0 -0.5591928368283753
vn -0.8290376175058849 0 -0.5591928368283754
vn -0.8290376175058849 0 -0.5591928368283754
vn -0.8290376175058849 0 -0.5591928368283754
vn 0.5591896269463738 0 -0.8290397825892164
vn 0.5591896269463738 0 -0.8290397825892164
vn 0.5591896269463738 0 -0.8290397825892164
vn 0.5591896269463738 0 -0.8290397825892164
vn 0.5591896269463738 0 -0.8290397825892164
vn 0.5591896269463738 0 -0.8290397825892164
vn 0.829037731109926 0 0.5591926684033921
vn 0.829037731109926 0 0.5591926684033921
vn 0.829037731109926 0 0.5591926684033921
vn 0.829037731109926 0 0.5591926684033921
vn 0.829037731109926 0 0.5591926684033921
vn 0.829037731109926 0 0.5591926684033921
g Scene
usemtl material10
f 1/1/1 2/2/2 3/3/3
f 1/4/4 4/5/5 2/6/6
f 5/7/7 6/8/8 7/9/9
f 5/10/10 8/11/11 6/12/12
f 9/13/13 10/14/14 11/15/15
f 9/16/16 12/17/17 10/18/18
f 13/19/19 14/20/20 15/21/21
f 13/22/22 16/23/23 14/24/24
f 17/25/25 18/26/26 19/27/27
f 17/28/28 20/29/29 18/30/30
f 21/31/31 22/32/32 23/33/33
f 21/34/34 24/35/35 22/36/36
