mtllib material.mtl
o Default
v 0 0 -2
v 0 0 0
v 2 0 0
v 2 0 -2
v 0 -2 0
v 2 0 0
v 0 0 0
v 2 -2 0
v 0 -2 -2
v 0 0 0
v 0 0 -2
v 0 -2 0
v 2 -2 -2
v 2 0 0
v 2 0 -2
v 2 -2 0
v 2 -2 0
v 0 0 0
v 2 0 0
v 0 -2 0
v 0 -2 0
v 0 0 -2
v 0 0 0
v 0 -2 -2
v 0 -2 -2
v 2 0 -2
v 0 0 -2
v 2 -2 -2
v 0 0 0
v 2 0 -2
v 0 0 -2
v 2 0 0
v 2 -2 -2
v 0 0 -2
v 2 0 -2
v 0 -2 -2
v 0 0 0
v 0 4 -2
v 0 4 0
v 0 0 -2
v 2 -2 0
v 2 0 -2
v 2 0 0
v 2 -2 -2
v 0 0 -2
v 0 4 0
v 0 4 -2
v 0 0 0
vt 0.8848684210526315 0.7598684210526315
vt 0.9901315789473684 0.8651315789473684
vt 0.8848684210526315 0.8651315789473684
vt 0.9901315789473684 0.7598684210526315
vt 0.8848684210526315 0.6348684210526315
vt 0.9901315789473684 0.7401315789473684
vt 0.8848684210526315 0.7401315789473684
vt 0.9901315789473684 0.6348684210526315
vt 0.6348684210526315 0.6546052631578947
vt 0.7401315789473684 0.8651315789473684
vt 0.6348684210526315 0.8651315789473684
vt 0.7401315789473684 0.6546052631578947
vn 0 -1 0
vn 0 0 1
vn -1 0 0
vn 0 0 -1
vn 1 0 0
vn 0 1 0
g cadeira
usemtl 0
f 1/1/1 3/2/1 2/3/1
f 1/1/1 4/4/1 3/2/1
f 5/5/2 6/6/2 7/7/2
f 5/5/2 8/8/2 6/6/2
f 9/5/3 10/6/3 11/7/3
f 9/5/3 12/8/3 10/6/3
f 13/5/3 14/6/3 15/7/3
f 13/5/3 16/8/3 14/6/3
f 17/5/4 18/6/4 19/7/4
f 17/5/4 20/8/4 18/6/4
f 21/5/5 22/6/5 23/7/5
f 21/5/5 24/8/5 22/6/5
f 25/5/2 26/6/2 27/7/2
f 25/5/2 28/8/2 26/6/2
f 29/1/6 30/2/6 31/3/6
f 29/1/6 32/4/6 30/2/6
f 33/5/4 34/6/4 35/7/4
f 33/5/4 36/8/4 34/6/4
f 37/9/5 38/10/5 39/11/5
f 37/9/5 40/12/5 38/10/5
f 41/5/5 42/6/5 43/7/5
f 41/5/5 44/8/5 42/6/5
f 45/9/3 46/10/3 47/11/3
f 45/9/3 48/12/3 46/10/3
