mtllib caixa.mtl
o Default
v 0 0 -1
v 0 0 0
v -1 0 0
v -1 0 -1
v -1 -1 -1
v 0 -1 0
v -1 -1 0
v 0 -1 -1
v -1 -1 -1
v -1 0 0
v -1 0 -1
v -1 -1 0
v 0 -1 -1
v -1 0 -1
v 0 0 -1
v -1 -1 -1
v 0 -1 0
v 0 0 -1
v 0 0 0
v 0 -1 -1
v -1 -1 0
v 0 0 0
v -1 0 0
v 0 -1 0
vt 0.5085227272727273 0.7585227272727273
vt 0.5539772727272727 0.8039772727272727
vt 0.5085227272727273 0.8039772727272727
vt 0.5539772727272727 0.7585227272727273
vn 0 1 0
vn 0 -1 0
vn -1 0 0
vn 0 0 -1
vn 1 0 0
vn 0 0 1
g caixa
usemtl 0
f 1/1/1 3/2/1 2/3/1
f 1/1/1 4/4/1 3/2/1
f 5/1/2 6/2/2 7/3/2
f 5/1/2 8/4/2 6/2/2
f 9/1/3 10/2/3 11/3/3
f 9/1/3 12/4/3 10/2/3
f 13/1/4 14/2/4 15/3/4
f 13/1/4 16/4/4 14/2/4
f 17/1/5 18/2/5 19/3/5
f 17/1/5 20/4/5 18/2/5
f 21/1/6 22/2/6 23/3/6
f 21/1/6 24/4/6 22/2/6
